<svg width="92" height="151" viewBox="0 0 92 151" fill="none" xmlns="http://www.w3.org/2000/svg">
<g clip-path="url(#clip0_36_32)">
<path d="M0 -35.8381V120.709C0 124.66 0.775243 128.572 2.28147 132.221C3.78768 135.871 5.99542 139.187 8.77853 141.981C14.3994 147.623 22.0228 150.792 29.9718 150.792C33.9078 150.792 37.805 150.014 41.4416 148.502C45.0778 146.99 48.3821 144.774 51.1652 141.981C53.9481 139.187 56.1561 135.871 57.6623 132.221C59.1685 128.572 59.9435 124.66 59.9435 120.709V-35.8381H0Z" fill="#E84928" fill-opacity="0.81"/>
<path d="M65.1133 102.281C57.9914 102.273 51.1635 99.4296 46.1274 94.3746C41.0913 89.32 38.2585 82.4666 38.25 75.3183V-67.5624H43.0119V75.3183C43.0119 81.2029 45.341 86.8468 49.4865 91.0076C53.6324 95.1687 59.2551 97.5065 65.118 97.5065C70.9807 97.5065 76.6037 95.1687 80.7492 91.0076C84.8947 86.8468 87.2238 81.2029 87.2238 75.3183V-67.5624H91.9809V75.3183C91.9729 82.4674 89.1393 89.3215 84.1024 94.3764C79.0653 99.4311 72.2363 102.274 65.1133 102.281Z" fill="#FEC2ED"/>
</g>
<defs>
<clipPath id="clip0_36_32">
<rect width="92" height="151" fill="white"/>
</clipPath>
</defs>
</svg>
